<svg version="1.1" id="Layer_1" xmlns="http://www.w3.org/2000/svg" xmlns:xlink="http://www.w3.org/1999/xlink" x="0px" y="0px"
	 width="100%" viewBox="0 0 1280 1024" enable-background="new 0 0 1280 1024" xml:space="preserve">
<path fill="#000000" opacity="1.000000" stroke="none" 
	d="
M652.000000,1025.000000 
	C434.666656,1025.000000 217.833328,1025.000000 1.000000,1025.000000 
	C1.000000,683.666687 1.000000,342.333344 1.000000,1.000000 
	C427.666656,1.000000 854.333313,1.000000 1281.000000,1.000000 
	C1281.000000,342.333344 1281.000000,683.666687 1281.000000,1025.000000 
	C1071.500000,1025.000000 862.000000,1025.000000 652.000000,1025.000000 
M484.687286,507.882385 
	C479.258759,517.343811 483.219269,527.356262 483.125183,537.228333 
	C483.679535,536.473389 484.233917,535.718506 484.955383,535.890686 
	C484.970154,539.056458 484.944824,542.223022 485.006622,545.387878 
	C485.266968,558.723389 490.174805,569.837158 500.740234,578.252625 
	C513.710632,588.583679 528.061157,589.912537 542.825256,583.465637 
	C558.642761,576.558594 566.744629,563.699585 566.916931,546.516235 
	C567.215881,516.690247 566.999939,486.859100 566.999817,457.030121 
	C566.999817,455.110779 566.999756,453.191406 566.999756,451.000000 
	C569.755371,451.000000 571.739319,451.000000 573.723267,451.000000 
	C611.217834,450.999969 648.712830,450.882843 686.206665,451.048828 
	C705.188843,451.132904 723.233704,438.126129 727.284241,417.849304 
	C732.216064,393.160797 713.594543,368.915375 687.819275,368.976532 
	C649.658386,369.067108 611.497131,368.999390 573.335999,368.999054 
	C571.385437,368.999023 569.434875,368.999023 567.001648,368.999023 
	C567.001648,366.166809 566.859131,363.866577 567.037231,361.591492 
	C567.267212,358.653778 567.457092,355.661041 568.175720,352.821472 
	C574.771790,326.760559 595.697266,309.337280 622.493469,309.048767 
	C644.654358,308.810150 666.820129,309.060242 688.983032,308.954559 
	C694.083008,308.930237 699.268860,308.826324 704.264221,307.923920 
	C732.704102,302.786102 746.005920,270.834076 730.977722,246.765884 
	C722.468384,233.137802 709.542786,225.633606 692.908752,226.021683 
	C683.800720,226.234177 674.699097,226.905304 665.592346,226.953705 
	C640.596680,227.086578 615.599854,226.999496 590.603455,226.999496 
	C583.587952,226.999496 576.572449,226.999496 569.785156,226.999496 
	C578.100952,208.201584 569.603638,192.267090 559.973145,184.706039 
	C548.035522,175.333588 528.947021,174.315552 515.007141,186.811249 
	C505.440765,195.386566 501.068481,209.888702 506.249390,224.323334 
	C508.950500,231.848877 514.026184,237.838379 521.294495,241.878342 
	C532.499268,248.106247 543.887329,246.877579 555.520325,242.870056 
	C555.317383,245.494415 555.170715,247.555923 554.996704,249.615112 
	C553.923523,262.312256 549.461792,273.522797 540.072693,282.375580 
	C532.026489,289.962189 522.071106,293.365784 511.316254,295.014587 
	C496.160370,297.338135 485.002777,310.549622 485.001434,325.895813 
	C484.997070,375.888550 484.990753,425.881256 485.006897,475.873993 
	C485.010254,486.369629 485.106171,496.865295 484.687286,507.882385 
M648.003357,802.450378 
	C657.391541,774.663757 666.779724,746.877136 676.167908,719.090576 
	C676.528198,719.162415 676.888550,719.234314 677.248901,719.306213 
	C677.248901,752.395081 677.248901,785.484009 677.248901,818.566223 
	C681.409851,818.566223 685.111267,818.566223 688.665405,818.566223 
	C688.665405,772.209351 688.665405,726.287476 688.665405,679.999939 
	C686.527710,679.999939 684.680115,680.247559 682.924377,679.951233 
	C678.536377,679.210693 676.337646,680.942688 675.257385,685.244568 
	C674.267578,689.186401 672.434814,692.909424 671.107910,696.774963 
	C660.386902,728.005981 649.705322,759.250427 638.984314,790.481445 
	C638.137573,792.948181 637.084656,795.344177 635.728271,798.786682 
	C627.329834,774.619446 619.361145,751.777588 611.457275,728.913330 
	C606.274048,713.919495 601.225647,698.878845 595.987488,683.904358 
	C595.477600,682.446899 594.204590,680.390991 593.027222,680.199036 
	C589.853882,679.681702 586.540833,680.022156 583.282593,680.022156 
	C583.282593,726.671875 583.282593,772.592346 583.282593,818.670044 
	C587.282959,818.670044 590.995605,818.670044 595.130493,818.670044 
	C595.130493,785.349548 595.130493,752.356995 595.130493,719.364502 
	C595.357727,719.336609 595.585022,719.308716 595.812256,719.280823 
	C607.055786,752.481140 618.299255,785.681519 629.582764,818.999817 
	C632.644531,818.999817 635.484741,818.811157 638.288391,819.050842 
	C641.328308,819.310669 642.673096,818.159973 643.492432,815.200195 
	C644.622192,811.118896 646.404053,807.218140 648.003357,802.450378 
M378.502075,771.001892 
	C368.691833,755.528687 358.899231,740.044250 349.066040,724.585632 
	C340.368591,710.912415 331.666870,697.241333 322.844635,683.648804 
	C321.882812,682.166870 320.236145,680.416992 318.689453,680.173462 
	C315.332916,679.644775 311.835541,680.010437 308.396301,680.010437 
	C308.396301,726.676941 308.396301,772.711548 308.396301,818.701782 
	C312.387451,818.701782 315.982422,818.701782 320.079224,818.701782 
	C320.079224,780.219299 320.079224,742.031494 320.079224,702.746338 
	C321.222900,704.068298 321.662964,704.465393 321.969604,704.947388 
	C336.016815,727.028992 350.042267,749.124451 364.093048,771.203796 
	C372.536835,784.472290 381.204102,797.603149 389.414398,811.014160 
	C394.538391,819.383972 395.295593,820.063477 405.673584,818.461975 
	C405.673584,772.459656 405.673584,726.424255 405.673584,680.415955 
	C401.630432,680.415955 397.923004,680.415955 393.742981,680.415955 
	C393.742981,718.480164 393.742981,756.130310 393.742981,794.843323 
	C388.383209,786.448547 383.648163,779.032288 378.502075,771.001892 
M849.311340,819.000305 
	C853.750671,818.663147 858.224731,818.567627 862.621704,817.935730 
	C870.338013,816.826599 877.424194,814.327332 883.560791,809.064514 
	C892.410156,801.475098 894.628662,791.129517 894.794434,780.652710 
	C895.135925,759.078552 895.176575,737.430603 893.756104,715.917664 
	C892.435913,695.923035 878.114746,681.960754 858.270142,680.188660 
	C843.928284,678.908020 829.434204,679.322998 815.007202,679.022400 
	C813.750427,678.996216 812.487305,679.272949 811.266357,679.404724 
	C811.266357,726.018738 811.266357,772.244751 811.266357,819.000427 
	C823.798889,819.000427 836.073120,819.000427 849.311340,819.000305 
M977.882812,812.366089 
	C982.375061,798.249634 986.867371,784.133240 991.364258,770.002258 
	C1005.196716,770.002258 1018.511780,770.044861 1031.826172,769.964966 
	C1034.381836,769.949646 1035.467163,770.787537 1036.279175,773.377686 
	C1040.677612,787.407349 1045.326904,801.359680 1050.050781,815.284058 
	C1050.532471,816.703979 1051.963867,818.652283 1053.165039,818.816589 
	C1056.647339,819.293030 1060.236816,818.985413 1064.127197,818.985413 
	C1057.356812,798.011658 1050.883423,777.815308 1044.315430,757.649719 
	C1036.927490,734.966187 1029.445923,712.313110 1022.021912,689.641296 
	C1018.739075,679.616272 1018.757751,679.607544 1008.272705,680.094055 
	C1007.957642,680.108704 1007.651001,680.306030 1007.203430,680.467712 
	C992.521851,726.403137 977.814209,772.419983 962.926514,819.000427 
	C965.630371,819.000427 967.976135,818.677002 970.196960,819.066284 
	C975.155518,819.935364 977.174744,817.652588 977.882812,812.366089 
M448.002167,694.720154 
	C447.448242,691.424194 449.195923,690.929504 452.033112,690.949585 
	C467.195129,691.057129 482.358307,690.999634 497.521088,690.999146 
	C499.272064,690.999146 501.023041,690.999146 502.688202,690.999146 
	C502.688202,686.938049 502.688202,683.676025 502.688202,680.394897 
	C480.335236,680.394897 458.295990,680.394897 436.290222,680.394897 
	C436.290222,726.706360 436.290222,772.622620 436.290222,818.603149 
	C458.625275,818.603149 480.663330,818.603149 502.694885,818.603149 
	C502.694885,814.943298 502.694885,811.688293 502.694885,807.832275 
	C484.353241,807.832275 466.305573,807.832275 448.298615,807.832275 
	C448.298615,787.630310 448.298615,768.042725 448.298615,748.071655 
	C459.866913,748.071655 471.145508,748.071655 482.487213,748.071655 
	C483.778015,744.061279 484.961090,740.385498 486.415741,735.866028 
	C473.224426,735.866028 460.699921,735.866028 448.000854,735.866028 
	C448.000854,721.994507 448.000854,708.836670 448.002167,694.720154 
M759.435242,736.000122 
	C750.022034,736.000122 740.608826,736.000122 731.327942,736.000122 
	C731.327942,720.572876 731.327942,705.983826 731.327942,690.793213 
	C749.698425,690.793213 767.750000,690.793213 785.679749,690.793213 
	C785.679749,686.916565 785.679749,683.656189 785.679749,680.406006 
	C763.317932,680.406006 741.278992,680.406006 719.311951,680.406006 
	C719.311951,726.728699 719.311951,772.644531 719.311951,818.588013 
	C741.661438,818.588013 763.699219,818.588013 785.682129,818.588013 
	C785.682129,814.913635 785.682129,811.655579 785.682129,807.801514 
	C767.324341,807.801514 749.276794,807.801514 731.313843,807.801514 
	C731.313843,787.600464 731.313843,768.012695 731.313843,748.000183 
	C741.418030,748.000183 751.217590,748.123596 761.008423,747.886047 
	C762.763794,747.843445 765.227356,746.754761 766.057922,745.367310 
	C767.601624,742.788269 768.183350,739.633362 769.407593,736.000122 
	C765.955261,736.000122 763.182983,736.000122 759.435242,736.000122 
M192.523926,691.000122 
	C206.939758,691.000122 221.355591,691.000122 235.693359,691.000122 
	C235.693359,686.946472 235.693359,683.684570 235.693359,680.389099 
	C213.347824,680.389099 191.310410,680.389099 169.288513,680.389099 
	C169.288513,726.691528 169.288513,772.604370 169.288513,818.647888 
	C173.293610,818.647888 177.002304,818.647888 181.114136,818.647888 
	C181.114136,795.041077 181.114136,771.783386 181.114136,747.998840 
	C189.796494,747.998840 198.082062,748.097168 206.361206,747.910400 
	C207.895355,747.875854 210.137253,747.104370 210.781662,745.958374 
	C212.488800,742.922302 213.500000,739.494873 215.021194,735.631226 
	C203.363388,735.631226 192.286026,735.631226 181.320282,735.631226 
	C181.320282,720.585632 181.320282,705.997925 181.320282,691.000122 
	C184.934357,691.000122 188.233704,691.000122 192.523926,691.000122 
M257.474518,689.998840 
	C260.524811,690.452393 263.575104,690.905884 267.143188,691.436401 
	C267.143188,733.973022 267.143188,776.352478 267.143188,818.727722 
	C271.308289,818.727722 274.904755,818.727722 278.654602,818.727722 
	C278.654602,772.423828 278.654602,726.393433 278.654602,680.252686 
	C270.382721,680.252686 262.458496,680.252686 254.005005,680.252686 
	C254.005005,682.612427 253.712463,684.786316 254.117554,686.821350 
	C254.350967,687.993835 255.712387,688.941772 257.474518,689.998840 
M935.000671,699.569885 
	C935.000671,739.283997 935.000671,778.998108 935.000671,818.687012 
	C939.398376,818.687012 942.985962,818.687012 946.642395,818.687012 
	C946.642395,772.361206 946.642395,726.349792 946.642395,680.259705 
	C938.360901,680.259705 930.439453,680.259705 922.327026,680.259705 
	C922.327026,683.574585 922.327026,686.623901 922.327026,689.605164 
	C926.666138,690.212280 930.681824,690.774231 935.000671,691.378540 
	C935.000671,693.982727 935.000671,696.289673 935.000671,699.569885 
z"/>
<path fill="#5F8891" opacity="1.000000" stroke="none" 
	d="
M485.159424,507.360931 
	C485.106171,496.865295 485.010254,486.369629 485.006897,475.873993 
	C484.990753,425.881256 484.997070,375.888550 485.001434,325.895813 
	C485.002777,310.549622 496.160370,297.338135 511.316254,295.014587 
	C522.071106,293.365784 532.026489,289.962189 540.072693,282.375580 
	C549.461792,273.522797 553.923523,262.312256 554.996704,249.615112 
	C555.170715,247.555923 555.317383,245.494415 555.520325,242.870056 
	C543.887329,246.877579 532.499268,248.106247 521.294495,241.878342 
	C514.026184,237.838379 508.950500,231.848877 506.249390,224.323334 
	C501.068481,209.888702 505.440765,195.386566 515.007141,186.811249 
	C528.947021,174.315552 548.035522,175.333588 559.973145,184.706039 
	C569.603638,192.267090 578.100952,208.201584 569.785156,226.999496 
	C576.572449,226.999496 583.587952,226.999496 590.603455,226.999496 
	C615.599854,226.999496 640.596680,227.086578 665.592346,226.953705 
	C674.699097,226.905304 683.800720,226.234177 692.908752,226.021683 
	C709.542786,225.633606 722.468384,233.137802 730.977722,246.765884 
	C746.005920,270.834076 732.704102,302.786102 704.264221,307.923920 
	C699.268860,308.826324 694.083008,308.930237 688.983032,308.954559 
	C666.820129,309.060242 644.654358,308.810150 622.493469,309.048767 
	C595.697266,309.337280 574.771790,326.760559 568.175720,352.821472 
	C567.457092,355.661041 567.267212,358.653778 567.037231,361.591492 
	C566.859131,363.866577 567.001648,366.166809 567.001648,368.999023 
	C569.434875,368.999023 571.385437,368.999023 573.335999,368.999054 
	C611.497131,368.999390 649.658386,369.067108 687.819275,368.976532 
	C713.594543,368.915375 732.216064,393.160797 727.284241,417.849304 
	C723.233704,438.126129 705.188843,451.132904 686.206665,451.048828 
	C648.712830,450.882843 611.217834,450.999969 573.723267,451.000000 
	C571.739319,451.000000 569.755371,451.000000 566.999756,451.000000 
	C566.999756,453.191406 566.999817,455.110779 566.999817,457.030121 
	C566.999939,486.859100 567.215881,516.690247 566.916931,546.516235 
	C566.744629,563.699585 558.642761,576.558594 542.825256,583.465637 
	C528.061157,589.912537 513.710632,588.583679 500.740234,578.252625 
	C490.174805,569.837158 485.266968,558.723389 485.006622,545.387878 
	C484.944824,542.223022 484.970154,539.056458 484.939056,535.046753 
	C485.239197,532.921692 485.349518,531.543152 485.902161,530.373657 
	C500.785583,498.877625 521.542114,472.786163 553.547974,457.087250 
	C554.993469,456.378204 556.427490,455.645813 557.866821,454.924316 
	C539.692749,456.688873 518.398254,467.470245 504.272583,482.576660 
	C497.179138,490.162567 491.485901,499.057800 485.159424,507.360931 
M560.960571,453.564636 
	C560.960571,453.564636 561.014465,453.543396 560.960571,453.564636 
z"/>
<path fill="#5F8891" opacity="1.000000" stroke="none" 
	d="
M647.954956,802.845215 
	C646.404053,807.218140 644.622192,811.118896 643.492432,815.200195 
	C642.673096,818.159973 641.328308,819.310669 638.288391,819.050842 
	C635.484741,818.811157 632.644531,818.999817 629.582764,818.999817 
	C618.299255,785.681519 607.055786,752.481140 595.812256,719.280823 
	C595.585022,719.308716 595.357727,719.336609 595.130493,719.364502 
	C595.130493,752.356995 595.130493,785.349548 595.130493,818.670044 
	C590.995605,818.670044 587.282959,818.670044 583.282593,818.670044 
	C583.282593,772.592346 583.282593,726.671875 583.282593,680.022156 
	C586.540833,680.022156 589.853882,679.681702 593.027222,680.199036 
	C594.204590,680.390991 595.477600,682.446899 595.987488,683.904358 
	C601.225647,698.878845 606.274048,713.919495 611.457275,728.913330 
	C619.361145,751.777588 627.329834,774.619446 635.728271,798.786682 
	C637.084656,795.344177 638.137573,792.948181 638.984314,790.481445 
	C649.705322,759.250427 660.386902,728.005981 671.107910,696.774963 
	C672.434814,692.909424 674.267578,689.186401 675.257385,685.244568 
	C676.337646,680.942688 678.536377,679.210693 682.924377,679.951233 
	C684.680115,680.247559 686.527710,679.999939 688.665405,679.999939 
	C688.665405,726.287476 688.665405,772.209351 688.665405,818.566223 
	C685.111267,818.566223 681.409851,818.566223 677.248901,818.566223 
	C677.248901,785.484009 677.248901,752.395081 677.248901,719.306213 
	C676.888550,719.234314 676.528198,719.162415 676.167908,719.090576 
	C666.779724,746.877136 657.391541,774.663757 647.954956,802.845215 
z"/>
<path fill="#5F8891" opacity="1.000000" stroke="none" 
	d="
M378.707611,771.308960 
	C383.648163,779.032288 388.383209,786.448547 393.742981,794.843323 
	C393.742981,756.130310 393.742981,718.480164 393.742981,680.415955 
	C397.923004,680.415955 401.630432,680.415955 405.673584,680.415955 
	C405.673584,726.424255 405.673584,772.459656 405.673584,818.461975 
	C395.295593,820.063477 394.538391,819.383972 389.414398,811.014160 
	C381.204102,797.603149 372.536835,784.472290 364.093048,771.203796 
	C350.042267,749.124451 336.016815,727.028992 321.969604,704.947388 
	C321.662964,704.465393 321.222900,704.068298 320.079224,702.746338 
	C320.079224,742.031494 320.079224,780.219299 320.079224,818.701782 
	C315.982422,818.701782 312.387451,818.701782 308.396301,818.701782 
	C308.396301,772.711548 308.396301,726.676941 308.396301,680.010437 
	C311.835541,680.010437 315.332916,679.644775 318.689453,680.173462 
	C320.236145,680.416992 321.882812,682.166870 322.844635,683.648804 
	C331.666870,697.241333 340.368591,710.912415 349.066040,724.585632 
	C358.899231,740.044250 368.691833,755.528687 378.707611,771.308960 
z"/>
<path fill="#5F8891" opacity="1.000000" stroke="none" 
	d="
M848.829346,819.000366 
	C836.073120,819.000427 823.798889,819.000427 811.266357,819.000427 
	C811.266357,772.244751 811.266357,726.018738 811.266357,679.404724 
	C812.487305,679.272949 813.750427,678.996216 815.007202,679.022400 
	C829.434204,679.322998 843.928284,678.908020 858.270142,680.188660 
	C878.114746,681.960754 892.435913,695.923035 893.756104,715.917664 
	C895.176575,737.430603 895.135925,759.078552 894.794434,780.652710 
	C894.628662,791.129517 892.410156,801.475098 883.560791,809.064514 
	C877.424194,814.327332 870.338013,816.826599 862.621704,817.935730 
	C858.224731,818.567627 853.750671,818.663147 848.829346,819.000366 
M880.595154,710.111633 
	C878.736877,704.918030 875.821960,700.772583 871.129944,697.434937 
	C864.970825,693.053650 858.537231,690.901306 851.013367,690.839050 
	C841.823547,690.763062 832.639038,690.055359 823.346558,689.615906 
	C823.346558,729.631409 823.346558,768.635315 823.346558,806.968445 
	C835.922485,806.968445 848.231018,807.846741 860.342834,806.681274 
	C869.483948,805.801697 877.547180,801.035828 880.702393,791.334473 
	C882.000244,787.343872 882.842224,783.025085 882.899353,778.842041 
	C883.138123,761.369324 883.155457,743.889160 882.904602,726.416748 
	C882.830078,721.223206 881.614014,716.046021 880.595154,710.111633 
z"/>
<path fill="#5F8891" opacity="1.000000" stroke="none" 
	d="
M977.664612,812.714783 
	C977.174744,817.652588 975.155518,819.935364 970.196960,819.066284 
	C967.976135,818.677002 965.630371,819.000427 962.926514,819.000427 
	C977.814209,772.419983 992.521851,726.403137 1007.203430,680.467712 
	C1007.651001,680.306030 1007.957642,680.108704 1008.272705,680.094055 
	C1018.757751,679.607544 1018.739075,679.616272 1022.021912,689.641296 
	C1029.445923,712.313110 1036.927490,734.966187 1044.315430,757.649719 
	C1050.883423,777.815308 1057.356812,798.011658 1064.127197,818.985413 
	C1060.236816,818.985413 1056.647339,819.293030 1053.165039,818.816589 
	C1051.963867,818.652283 1050.532471,816.703979 1050.050781,815.284058 
	C1045.326904,801.359680 1040.677612,787.407349 1036.279175,773.377686 
	C1035.467163,770.787537 1034.381836,769.949646 1031.826172,769.964966 
	C1018.511780,770.044861 1005.196716,770.002258 991.364258,770.002258 
	C986.867371,784.133240 982.375061,798.249634 977.664612,812.714783 
M1021.878418,726.680054 
	C1019.083801,718.129456 1016.289124,709.578857 1013.494507,701.028198 
	C1013.165955,701.063904 1012.837341,701.099548 1012.508789,701.135193 
	C1006.620789,720.201904 1000.732788,739.268555 994.756653,758.620728 
	C1007.430725,758.620728 1019.569946,758.620728 1031.989258,758.620728 
	C1028.565308,747.957458 1025.278198,737.719971 1021.878418,726.680054 
z"/>
<path fill="#5F8891" opacity="1.000000" stroke="none" 
	d="
M448.001526,695.199463 
	C448.000854,708.836670 448.000854,721.994507 448.000854,735.866028 
	C460.699921,735.866028 473.224426,735.866028 486.415741,735.866028 
	C484.961090,740.385498 483.778015,744.061279 482.487213,748.071655 
	C471.145508,748.071655 459.866913,748.071655 448.298615,748.071655 
	C448.298615,768.042725 448.298615,787.630310 448.298615,807.832275 
	C466.305573,807.832275 484.353241,807.832275 502.694885,807.832275 
	C502.694885,811.688293 502.694885,814.943298 502.694885,818.603149 
	C480.663330,818.603149 458.625275,818.603149 436.290222,818.603149 
	C436.290222,772.622620 436.290222,726.706360 436.290222,680.394897 
	C458.295990,680.394897 480.335236,680.394897 502.688202,680.394897 
	C502.688202,683.676025 502.688202,686.938049 502.688202,690.999146 
	C501.023041,690.999146 499.272064,690.999146 497.521088,690.999146 
	C482.358307,690.999634 467.195129,691.057129 452.033112,690.949585 
	C449.195923,690.929504 447.448242,691.424194 448.001526,695.199463 
z"/>
<path fill="#5F8891" opacity="1.000000" stroke="none" 
	d="
M759.922974,736.000122 
	C763.182983,736.000122 765.955261,736.000122 769.407593,736.000122 
	C768.183350,739.633362 767.601624,742.788269 766.057922,745.367310 
	C765.227356,746.754761 762.763794,747.843445 761.008423,747.886047 
	C751.217590,748.123596 741.418030,748.000183 731.313843,748.000183 
	C731.313843,768.012695 731.313843,787.600464 731.313843,807.801514 
	C749.276794,807.801514 767.324341,807.801514 785.682129,807.801514 
	C785.682129,811.655579 785.682129,814.913635 785.682129,818.588013 
	C763.699219,818.588013 741.661438,818.588013 719.311951,818.588013 
	C719.311951,772.644531 719.311951,726.728699 719.311951,680.406006 
	C741.278992,680.406006 763.317932,680.406006 785.679749,680.406006 
	C785.679749,683.656189 785.679749,686.916565 785.679749,690.793213 
	C767.750000,690.793213 749.698425,690.793213 731.327942,690.793213 
	C731.327942,705.983826 731.327942,720.572876 731.327942,736.000122 
	C740.608826,736.000122 750.022034,736.000122 759.922974,736.000122 
z"/>
<path fill="#5F8891" opacity="1.000000" stroke="none" 
	d="
M192.028488,691.000122 
	C188.233704,691.000122 184.934357,691.000122 181.320282,691.000122 
	C181.320282,705.997925 181.320282,720.585632 181.320282,735.631226 
	C192.286026,735.631226 203.363388,735.631226 215.021194,735.631226 
	C213.500000,739.494873 212.488800,742.922302 210.781662,745.958374 
	C210.137253,747.104370 207.895355,747.875854 206.361206,747.910400 
	C198.082062,748.097168 189.796494,747.998840 181.114136,747.998840 
	C181.114136,771.783386 181.114136,795.041077 181.114136,818.647888 
	C177.002304,818.647888 173.293610,818.647888 169.288513,818.647888 
	C169.288513,772.604370 169.288513,726.691528 169.288513,680.389099 
	C191.310410,680.389099 213.347824,680.389099 235.693359,680.389099 
	C235.693359,683.684570 235.693359,686.946472 235.693359,691.000122 
	C221.355591,691.000122 206.939758,691.000122 192.028488,691.000122 
z"/>
<path fill="#5F8891" opacity="1.000000" stroke="none" 
	d="
M257.020294,689.994812 
	C255.712387,688.941772 254.350967,687.993835 254.117554,686.821350 
	C253.712463,684.786316 254.005005,682.612427 254.005005,680.252686 
	C262.458496,680.252686 270.382721,680.252686 278.654602,680.252686 
	C278.654602,726.393433 278.654602,772.423828 278.654602,818.727722 
	C274.904755,818.727722 271.308289,818.727722 267.143188,818.727722 
	C267.143188,776.352478 267.143188,733.973022 267.143188,691.436401 
	C263.575104,690.905884 260.524811,690.452393 257.020294,689.994812 
z"/>
<path fill="#5F8891" opacity="1.000000" stroke="none" 
	d="
M935.000671,699.083252 
	C935.000671,696.289673 935.000671,693.982727 935.000671,691.378540 
	C930.681824,690.774231 926.666138,690.212280 922.327026,689.605164 
	C922.327026,686.623901 922.327026,683.574585 922.327026,680.259705 
	C930.439453,680.259705 938.360901,680.259705 946.642395,680.259705 
	C946.642395,726.349792 946.642395,772.361206 946.642395,818.687012 
	C942.985962,818.687012 939.398376,818.687012 935.000671,818.687012 
	C935.000671,778.998108 935.000671,739.283997 935.000671,699.083252 
z"/>
<path fill="#9A045E" opacity="1.000000" stroke="none" 
	d="
M484.923370,507.621643 
	C491.485901,499.057800 497.179138,490.162567 504.272583,482.576660 
	C518.398254,467.470245 539.692749,456.688873 557.866821,454.924316 
	C556.427490,455.645813 554.993469,456.378204 553.547974,457.087250 
	C521.542114,472.786163 500.785583,498.877625 485.902161,530.373657 
	C485.349518,531.543152 485.239197,532.921692 484.855499,534.583191 
	C484.233917,535.718506 483.679535,536.473389 483.125183,537.228333 
	C483.219269,527.356262 479.258759,517.343811 484.923370,507.621643 
z"/>
<path fill="#9A045E" opacity="1.000000" stroke="none" 
	d="
M560.987549,453.554016 
	C561.014465,453.543396 560.960571,453.564636 560.987549,453.554016 
z"/>
<path fill="#000000" opacity="1.000000" stroke="none" 
	d="
M880.758057,710.486450 
	C881.614014,716.046021 882.830078,721.223206 882.904602,726.416748 
	C883.155457,743.889160 883.138123,761.369324 882.899353,778.842041 
	C882.842224,783.025085 882.000244,787.343872 880.702393,791.334473 
	C877.547180,801.035828 869.483948,805.801697 860.342834,806.681274 
	C848.231018,807.846741 835.922485,806.968445 823.346558,806.968445 
	C823.346558,768.635315 823.346558,729.631409 823.346558,689.615906 
	C832.639038,690.055359 841.823547,690.763062 851.013367,690.839050 
	C858.537231,690.901306 864.970825,693.053650 871.129944,697.434937 
	C875.821960,700.772583 878.736877,704.918030 880.758057,710.486450 
z"/>
<path fill="#000000" opacity="1.000000" stroke="none" 
	d="
M1021.934692,727.081299 
	C1025.278198,737.719971 1028.565308,747.957458 1031.989258,758.620728 
	C1019.569946,758.620728 1007.430725,758.620728 994.756653,758.620728 
	C1000.732788,739.268555 1006.620789,720.201904 1012.508789,701.135193 
	C1012.837341,701.099548 1013.165955,701.063904 1013.494507,701.028198 
	C1016.289124,709.578857 1019.083801,718.129456 1021.934692,727.081299 
z"/>
</svg>