<svg version="1.1" id="Layer_1" xmlns="http://www.w3.org/2000/svg" xmlns:xlink="http://www.w3.org/1999/xlink" x="0px" y="0px"
	 width="100%" viewBox="0 0 1024 624" enable-background="new 0 0 1024 624" xml:space="preserve">
<path fill="#000000" opacity="1.000000" stroke="none" 
	d="
M514.022339,491.002563 
	C567.490723,458.283020 613.742126,418.057709 650.564941,367.539307 
	C666.379456,345.842773 679.050537,322.470795 684.143433,295.687286 
	C687.605103,277.482330 685.855103,259.869110 677.475220,243.158600 
	C667.599548,223.465118 650.335754,214.771591 628.461792,217.616745 
	C605.726746,220.573914 585.338013,229.751114 565.405090,240.293716 
	C525.369202,261.468872 489.279114,288.688171 452.139160,314.305573 
	C430.071198,329.526978 408.055481,344.861359 383.681305,356.350037 
	C373.692078,361.058380 363.381165,364.604431 352.444977,366.472412 
	C325.090698,371.144775 296.295227,349.792267 292.632538,322.263947 
	C289.885529,301.617584 296.152893,283.037476 305.259644,265.182434 
	C319.362396,237.531998 339.210571,214.193909 361.648468,193.075058 
	C397.754303,159.091782 438.556580,132.034988 483.944061,111.989403 
	C509.930817,100.512230 536.837341,91.926003 564.893616,87.273659 
	C589.702515,83.159813 614.673218,82.106972 639.418457,87.172470 
	C693.398010,98.222389 728.014343,130.611969 743.445923,183.460709 
	C753.676941,218.498566 749.201477,252.761734 737.001892,286.328583 
	C722.747803,325.548401 699.565796,359.338562 672.255127,390.535187 
	C642.448486,424.582855 608.591431,454.006775 570.943604,479.004974 
	C543.104614,497.490112 513.918945,513.460022 481.347900,522.151611 
	C466.282654,526.171814 450.952515,528.353394 435.456177,524.495850 
	C414.960510,519.393738 402.137665,503.729431 400.607483,482.712036 
	C398.551331,454.470612 408.867645,430.157593 424.507446,407.673798 
	C436.492737,390.443756 451.255371,376.097046 471.109009,368.124420 
	C485.684418,362.271423 500.273102,361.943390 514.416687,369.947449 
	C525.970337,376.485779 529.410950,386.688812 523.769409,398.775818 
	C519.063110,408.859314 511.819672,417.163940 504.441406,425.332031 
	C490.162842,441.139282 474.198364,455.409027 461.408844,472.576080 
	C456.904999,478.621521 452.866730,484.898987 450.921539,492.294128 
	C449.929779,496.064545 449.714844,499.864258 450.893585,503.625214 
	C452.283752,508.060974 455.239655,510.470398 460.005615,510.829498 
	C471.640656,511.706085 481.919342,507.246094 492.047638,502.571167 
	C499.443665,499.157410 506.499664,495.007050 514.022339,491.002563 
M318.528625,316.683350 
	C320.008423,321.710266 323.433533,324.426636 328.558960,325.105865 
	C334.390564,325.878693 339.818085,327.852783 345.104523,330.383728 
	C349.325928,332.404816 353.779968,332.566223 358.232513,331.092468 
	C371.508057,326.698303 381.250031,317.558167 388.348846,306.142181 
	C393.502289,297.854584 393.401123,285.362762 381.844635,281.518616 
	C372.586853,278.439087 364.262543,273.709930 356.105682,268.545715 
	C353.460663,266.871124 350.919464,266.860260 348.223297,268.736938 
	C345.229767,270.820679 342.235199,273.285583 338.852112,274.361084 
	C323.857971,279.128143 312.706085,300.904266 318.528625,316.683350 
z"/>
</svg>